<?xml version="1.0" encoding="utf-8"?>
<!-- Generator: Adobe Illustrator 16.0.0, SVG Export Plug-In . SVG Version: 6.00 Build 0)  -->
<!DOCTYPE svg PUBLIC "-//W3C//DTD SVG 1.1//EN" "http://www.w3.org/Graphics/SVG/1.1/DTD/svg11.dtd">
<svg version="1.1" id="Layer_1" xmlns="http://www.w3.org/2000/svg" xmlns:xlink="http://www.w3.org/1999/xlink" x="0px" y="0px"
	 width="106.75px" height="53.25px" viewBox="-10.25 -9.75 106.75 53.25" enable-background="new -10.25 -9.75 106.75 53.25"
	 xml:space="preserve">
<g>
	<path fill-rule="evenodd" clip-rule="evenodd" fill="#FFFFFF" d="M31.854,4.76c0.485-1.333,1.055-2.507,1.911-3.518
		c0.162-0.189,0.458-0.316,0.714-0.371c6.146-1.279,12.292-2.558,18.444-3.811c2.208-0.449,3.93,0.629,4.586,2.795
		c0.496,1.653,0.386,3.349,0.234,5.025c-0.133,1.462-0.406,2.907-0.578,4.367c-0.037,0.307,0.099,0.632,0.153,0.948
		c0.322-0.063,0.685-0.054,0.948-0.21c0.91-0.537,1.2-1.535,1.703-2.384c0.954-1.611,0.349-3.182-0.099-4.714
		c-0.259-0.876-0.012-1.502,0.409-2.168c0.053-0.077,0.129-0.181,0.206-0.195c0.752-0.142,1.51-0.268,2.32-0.409
		c0.108,1.472,0.153,2.858,0.322,4.231c0.325,2.662-0.126,5.222-0.839,7.767c-0.376,1.339-0.709,2.691-1.061,4.038
		c-0.053,0.206-0.096,0.413-0.155,0.685c1.021-0.082,1.665-0.623,2.077-1.396c0.441-0.821,0.832-1.678,1.137-2.557
		c0.236-0.673,0.594-1.038,1.307-1.185c2.143-0.438,4.271-0.938,6.399-1.417c0.335-0.075,0.646-0.134,0.747-0.563
		c0.621-2.648,1.267-5.293,1.904-7.944c-1.609-0.157-3.301,0.84-3.897,2.39c-0.768,1.985-1.475,3.99-2.163,6.003
		c-0.155,0.459-0.388,0.66-0.84,0.77c-1.101,0.266-2.188,0.591-3.28,0.887c-0.143,0.04-0.3,0.056-0.494,0.091
		c0-0.641,0.249-1.092,0.795-1.305c0.425-0.165,0.571-0.448,0.702-0.856c0.853-2.563,1.549-5.191,2.874-7.571
		c0.893-1.603,2.237-2.705,4.038-3.107c3.258-0.728,9.891-0.074,9.567,0.893c-0.06,0.172-0.404,0.296-0.64,0.354
		c-0.869,0.208-1.744,0.39-2.622,0.564c-0.436,0.086-0.666,0.309-0.78,0.76c-0.344,1.342-0.745,2.667-1.168,4.156
		c1.984-0.426,1.668,0.991,0.314,1.316c-0.348,0.084-0.535,0.256-0.617,0.617c-0.505,2.147-1.033,4.292-1.577,6.543
		c0.202-0.105,0.354-0.163,0.479-0.255c2.689-2.054,3.062-0.565,0.041,1.855c-0.685,0.548-1.095,1.186-1.351,2.021
		c-0.921,2.979-2.109,5.835-4.244,8.19c-2.774,3.062-6.244,4.857-10.309,5.515c-2.32,0.378-4.643,0.683-6.994,0.4
		c-0.102-0.011-0.194-0.033-0.386-0.069c0.112-0.709,0.184-1.418,0.357-2.1c0.045-0.166,0.398-0.323,0.633-0.361
		c2.135-0.346,4.296-0.566,6.409-1.014c4.374-0.925,7.823-3.217,9.811-7.322c0.782-1.616,1.291-3.37,1.865-5.08
		c0.386-1.145,0.672-2.323,1.048-3.658c-0.565,0.091-0.907,0.129-1.244,0.204c-1.009,0.22-2.024,0.431-3.017,0.703
		c-0.232,0.065-0.492,0.331-0.578,0.567c-0.333,0.891-0.627,1.801-0.885,2.719c-0.108,0.385-0.304,0.535-0.678,0.618
		c-1.591,0.358-3.223,0.608-4.745,1.151c-3.407,1.213-6.035,3.456-7.984,6.5c-0.108,0.165-0.284,0.357-0.464,0.398
		c-0.941,0.219-1.895,0.39-2.916,0.596c0.596-1.559,1.512-2.8,2.491-4.006c1.536-1.902,3.43-3.42,5.338-4.918
		c0.459-0.362,0.73-0.771,0.859-1.357c0.316-1.454,0.707-2.892,0.95-4.421c-0.223,0.204-0.445,0.408-0.668,0.612
		c-0.683,0.623-1.424,1.165-2.365,1.303c-0.427,0.063-0.879,0.075-1.295-0.009c-0.962-0.188-1.367-0.76-1.187-1.72
		c0.247-1.329,0.603-2.636,0.865-3.962c0.288-1.479,0.537-2.968,0.785-4.456c0.042-0.232,0.034-0.478,0.021-0.715
		c-0.08-1.606-0.987-2.383-2.563-2.071c-2.417,0.476-4.819,1.027-7.227,1.557c-4.463,0.988-8.925,1.983-13.387,2.973
		C32.21,4.692,32.096,4.712,31.854,4.76z"/>
	<path fill-rule="evenodd" clip-rule="evenodd" fill="#FFFFFF" d="M15.284,16.291c-3.606,0.663-7.056,1.574-10.602,2.057
		c-0.094-0.693,0.217-0.946,0.889-1.006c-0.82-0.666-1.166-1.371-0.608-2.271c0.074,0.03,0.126,0.035,0.141,0.063
		c0.638,1.105,0.783,1.221,2.079,0.982c2.715-0.496,5.421-1.04,8.125-1.597c0.207-0.043,0.459-0.313,0.513-0.524
		c0.125-0.483,0.318-0.731,0.858-0.797c0.898-0.106,1.784-0.324,2.868-0.533c-1.704,6.966-3.371,13.788-5.052,20.672
		c0.271-0.08,0.52-0.149,0.795-0.231c0.207,0.472,0.162,0.788-0.381,0.901c-0.524,0.112-1.062,0.189-1.563,0.369
		c-0.379,0.135-0.706,0.408-1.057,0.619c0.033,0.063,0.067,0.129,0.1,0.196c0.408-0.092,0.817-0.178,1.353-0.294
		c-0.172,0.311-0.257,0.53-0.396,0.708c-2.985,3.822-6.773,6.025-11.759,5.664c-4.24-0.304-7.498-3.675-7.452-7.706
		c0.028-2.459,1.035-4.582,2.472-6.526c0.19-0.253,0.383-0.505,0.6-0.739c0.098-0.105,0.261-0.223,0.387-0.219
		c1.569,0.096,2.649-0.625,3.378-2.061c0.328,0.482,0.322,0.958,0.138,1.387c-0.321,0.742-0.674,1.482-1.098,2.172
		c-0.935,1.521-1.741,3.08-1.966,4.879c-0.381,3.05,1.37,4.97,4.499,5.209c3.718,0.283,7.042-1.77,8.463-5.357
		c0.802-2.021,1.295-4.166,1.852-6.281c0.786-2.98,1.503-5.977,2.25-8.967C15.159,16.848,15.205,16.637,15.284,16.291z"/>
	<path fill-rule="evenodd" clip-rule="evenodd" fill="#FFFFFF" d="M11.394,9.585c-0.769-1.512-2.641-2.206-4.451-1.652
		c-1.893,0.58-3.135,1.924-3.989,3.63c-0.726,1.447-1.12,3.007-1.283,4.629c-0.106,1.074,0.259,1.892,1.101,2.543
		c2.018,1.548,4.001,3.14,6.049,4.647c1.205,0.89,1.67,2.008,1.316,3.423c-0.381,1.518-0.842,3.015-1.312,4.508
		c-0.096,0.311-0.378,0.565-0.574,0.844c-0.084-0.017-0.167-0.029-0.25-0.045c-0.056-0.728-0.112-1.452-0.163-2.108
		c-0.51,0.309-0.736,0.683-0.549,1.36c0.354,1.291-0.335,2.133-1.181,2.896c-0.181,0.163-0.573,0.249-0.79,0.168
		c-0.157-0.062-0.294-0.475-0.254-0.701c0.188-1.056,0.425-2.104,0.676-3.142c0.219-0.913,0.446-1.819,0.728-2.708
		c0.358-1.138-0.012-1.974-0.925-2.655c-1.45-1.078-2.921-2.131-4.327-3.268c-0.782-0.63-1.556-1.324-2.15-2.123
		c-1.152-1.551-1.374-3.338-1.024-5.228c0.508-2.766,1.608-5.24,3.577-7.267c2.311-2.374,5.104-3.482,8.428-2.864
		c1.646,0.306,3.104,1.013,3.995,2.544c0.155,0.268,0.256,0.585,0.303,0.892c0.148,0.979,0.019,1.13-0.945,1.271
		c-0.335,0.05-0.666,0.113-0.998,0.181C12.073,9.428,11.745,9.507,11.394,9.585z M8.769,27.873c0.241-0.832,0.517-1.685-0.004-2.572
		C8.766,26.211,8.767,27.043,8.769,27.873z"/>
	<path fill-rule="evenodd" clip-rule="evenodd" fill="#FFFFFF" d="M39.225,24.191c0.504-1.771,1.034-3.491,1.477-5.239
		c0.705-2.774,1.353-5.562,2.019-8.348c0.173-0.718,0.425-1.453-0.407-2.082c1.518-0.425,2.197-1.695,3.153-2.637
		c1.288-1.264,2.814-1.697,4.538-1.399c1.064,0.18,1.877,0.802,2.139,1.912c0.494,2.084,0.221,4.059-0.986,5.871
		c-0.576-0.459-0.664-0.917-0.319-1.545c0.272-0.499,0.535-1.002,0.803-1.502c-0.059-0.037-0.118-0.071-0.176-0.105
		c-0.447,0.728-0.919,1.442-1.327,2.192c-0.088,0.163,0.043,0.451,0.094,0.677c0.127,0.634,0.348,1.259,0.38,1.899
		c0.078,1.545,0.035,3.098,0.11,4.643c0.049,1.025,0.221,2.043,0.348,3.16c-1.089,0.236-2.26,0.492-3.518,0.77
		c-0.024-0.357-0.06-0.644-0.065-0.928c-0.021-1.332-0.022-2.661-0.053-3.992c-0.021-1.027-0.301-1.895-1.45-2.186
		c-0.114-0.026-0.198-0.158-0.303-0.253c1.001-0.62,2.137,0.413,2.531,2.231c0.188-0.738-0.103-1.846-0.634-2.325
		c-0.702-0.625-1.529-0.733-2.397-0.46c-0.172,0.055-0.362,0.299-0.406,0.49c-0.47,1.992-0.941,3.984-1.35,5.988
		c-0.115,0.57-0.045,1.18-0.011,1.767c0.024,0.386-0.067,0.563-0.479,0.64C41.706,23.658,40.489,23.93,39.225,24.191z
		 M45.135,12.774c0.745-0.106,1.421-0.209,2.102-0.295c0.541-0.071,0.966-0.339,1.109-0.857c0.311-1.122,0.61-2.25,0.821-3.396
		c0.116-0.625-0.268-1.001-0.877-0.852c-0.524,0.129-1.074,0.419-1.456,0.797C45.576,9.404,45.504,11.107,45.135,12.774z"/>
	<path fill-rule="evenodd" clip-rule="evenodd" fill="#FFFFFF" d="M45.799,25.012c-0.262,1.961-0.2,2.149,0.669,2.188
		c-0.156-0.285-0.316-0.582-0.524-0.972c2.433,0.413,4.608-0.182,6.806-0.552c2.271-0.384,4.268-1.326,6.104-2.992
		c-0.479,2.129-1.951,3.34-3.338,4.758c-0.367-0.885-0.936-0.501-1.467-0.383c-0.988,0.223-1.985,0.417-2.97,0.656
		c-0.829,0.201-1.052,0.727-0.644,1.679c0.172-1.038,0.844-1.394,1.755-1.532c-0.17,0.956-0.347,1.863-0.488,2.773
		c-0.217,1.39-0.2,2.769,0.276,4.116c0.063,0.165,0.102,0.343,0.141,0.519c0.106,0.479,0.2,1.05-0.278,1.295
		c-0.378,0.192-0.931,0.215-1.352,0.104c-0.864-0.217-1.392-0.882-1.704-1.697c-0.649-1.688-0.584-3.424-0.313-5.172
		c0.086-0.567,0.213-1.128,0.344-1.789c-0.258,0.024-0.48,0.043-0.699,0.075c-1.948,0.286-3.885,0.613-5.837,0.846
		c-1.612,0.194-3.188,0.041-4.707-0.686c-1.069-0.51-2.181-0.282-3.213,0.295c0.365-0.04,0.747-0.165,1.089-0.096
		c0.276,0.058,0.615,0.295,0.729,0.543c0.17,0.372-0.09,0.683-0.454,0.847c-0.216,0.096-0.448,0.171-0.678,0.22
		c-2.969,0.646-5.941,1.283-8.912,1.923c-0.093,0.018-0.189,0.01-0.481,0.028c0.281-0.999,0.506-1.918,0.82-2.809
		c0.074-0.206,0.441-0.382,0.703-0.438c2.678-0.582,5.357-1.154,8.045-1.697c3.271-0.662,6.545-1.301,9.821-1.942
		C45.268,25.073,45.502,25.053,45.799,25.012z M49.922,31.383c-0.073,0.008-0.145,0.017-0.218,0.024
		c0.073,0.647,0.146,1.301,0.223,1.948c0.064-0.004,0.126-0.016,0.188-0.021C50.049,32.684,49.985,32.032,49.922,31.383z"/>
	<path fill-rule="evenodd" clip-rule="evenodd" fill="#FFFFFF" d="M43.87,5.173c-0.137,0.185-0.279,0.369-0.414,0.56
		c-0.635,0.909-1.256,1.828-1.915,2.719c-0.155,0.213-0.409,0.419-0.657,0.485c-0.67,0.178-1.366,0.256-2.042,0.419
		c-0.41,0.101-0.663,0.03-0.855-0.374c-0.175-0.364-0.431-0.693-0.597-0.951c-0.42,2.051-0.841,4.118-1.281,6.274
		c1.075-0.201,2.092-0.394,3.295-0.621c-0.183,0.644-0.298,1.156-0.486,1.643c-0.05,0.129-0.311,0.206-0.489,0.249
		c-0.752,0.184-1.507,0.357-2.267,0.508c-0.364,0.07-0.528,0.258-0.605,0.615c-0.607,2.775-1.244,5.547-1.835,8.325
		c-0.086,0.408-0.243,0.552-0.631,0.625c-1.123,0.214-2.243,0.468-3.293,0.69c1.738-4.873,2.552-10.006,3.862-15.008
		c0.412-1.571,0.132-2.767-1.235-3.672c-0.112-0.073-0.202-0.185-0.443-0.41c4.018-0.786,7.903-1.549,11.791-2.311
		C43.805,5.016,43.837,5.093,43.87,5.173z"/>
	<path fill-rule="evenodd" clip-rule="evenodd" fill="#FFFFFF" d="M10.882,12.877c0.12-0.594,0.188-1.125,0.347-1.628
		c0.052-0.167,0.315-0.335,0.509-0.378c1.492-0.331,2.989-0.641,4.49-0.936c0.423-0.084,0.664-0.271,0.74-0.712
		c0.095-0.541,0.245-1.074,0.396-1.71c-0.641,0.099-1.176,0.182-1.718,0.266c-0.014-1.061,0.094-1.182,1.062-1.376
		c4.48-0.905,8.956-1.816,13.433-2.722c0.324-0.064,0.652-0.096,1.119-0.164c-0.576,1.31-1.099,2.496-1.646,3.74
		c-0.584-0.436-1.063-0.793-1.568-1.167c0.141-0.197,0.282-0.396,0.51-0.718c-0.333-0.003-0.54-0.038-0.733,0
		c-2.161,0.433-4.32,0.877-6.483,1.309c-0.354,0.071-0.544,0.243-0.625,0.608c-0.129,0.573-0.313,1.136-0.514,1.847
		c1.885-0.371,3.604-0.708,5.27-1.033c-0.053,0.969-0.104,1.905-0.154,2.866c-2.445-0.14-4.808,0.775-7.24,1.267
		c-2.433,0.492-4.849,1.068-7.273,1.607c-0.017,0.001-0.038-0.009-0.057-0.017c0.059-0.389,0.059-0.389,1.48-1.269
		C11.818,12.655,11.411,12.752,10.882,12.877z"/>
	<path fill-rule="evenodd" clip-rule="evenodd" fill="#FFFFFF" d="M28.751,26.662c-1.069,0.239-2.088,0.469-3.165,0.715
		c-0.04-0.457-0.072-0.867-0.107-1.275c-0.208-2.434-0.442-4.864-0.612-7.299c-0.063-0.902,0.025-1.813,0.045-2.691
		c0.706-0.161,1.309-0.271,1.893-0.447c0.195-0.057,0.448-0.242,0.499-0.416c0.305-1.091,0.562-2.195,0.832-3.293
		c0.113-0.458-0.094-0.703-0.523-0.843c-0.382-0.125-0.953-0.207-1.075-0.472c-0.232-0.517-0.34-1.168-0.261-1.729
		c0.166-1.196-0.006-1.007,1.168-1.072c0.932-0.052,1.82,0.088,2.615,0.619c0.873,0.582,1.36,1.382,1.34,2.445
		c-0.032,1.647-0.425,3.229-1.041,4.743c-0.457,1.119-1.453,1.749-2.427,2.413c-0.146-0.213-0.289-0.421-0.432-0.63
		c-0.056,0.012-0.11,0.021-0.167,0.031C28.413,20.427,28.51,23.527,28.751,26.662z"/>
	<path fill-rule="evenodd" clip-rule="evenodd" fill="#FFFFFF" d="M47.945,30.449c-0.05,0.458-0.031,0.805-0.139,1.111
		c-0.058,0.168-0.305,0.343-0.495,0.384c-1.436,0.319-2.869,0.658-4.318,0.887c-3.041,0.486-5.567,1.871-7.714,4.07
		c-1.289,1.322-2.688,2.544-4.375,3.362c-2.66,1.293-5.462,1.624-8.362,1.136c-1.025-0.17-1.354-0.627-1.146-1.628
		c0.229-1.082,0.645-2.105,1.269-3.08c0.906,1.777,2.478,1.62,3.995,1.501c1.938-0.151,3.722-0.803,5.353-1.858
		c1.249-0.814,2.445-1.72,3.749-2.431c1.209-0.664,2.485-1.297,3.812-1.64C42.298,31.559,45.077,31.059,47.945,30.449z"/>
	<path fill-rule="evenodd" clip-rule="evenodd" fill="#FFFFFF" d="M20.532,12.922c1.088-0.174,2.172-0.398,3.268-0.5
		c0.533-0.05,0.789,0.476,0.876,0.913c0.095,0.475,0.11,1.002,0,1.468c-0.765,3.252-1.579,6.494-2.366,9.74
		c-0.299,1.235-0.559,2.482-0.858,3.717c-0.036,0.155-0.185,0.369-0.317,0.398c-1.116,0.268-2.241,0.494-3.378,0.741
		c1.699-4.549,2.597-9.267,3.775-13.904c0.382-1.51,0.324-1.617-0.971-2.382C20.55,13.05,20.54,12.986,20.532,12.922z"/>
	<path fill-rule="evenodd" clip-rule="evenodd" fill="#FFFFFF" d="M72.668-2.919c1.066-1.071,2.576-1.106,3.787-1.855
		c-5.807,0.997-11.616,1.992-17.482,2.999c0.142-0.604,0.531-0.82,0.984-0.928c1.469-0.352,2.938-0.69,4.414-1.018
		c5.838-1.294,11.674-2.584,17.517-3.865c0.52-0.115,1.057-0.232,1.583-0.225c1.416,0.018,2.054,1.167,1.363,2.396
		c-0.127,0.224-0.299,0.421-0.458,0.626c-0.206,0.267-0.438,0.371-0.762,0.157c-0.766-0.506-1.583-0.393-2.416-0.199
		c-2.595,0.603-5.188,1.192-7.785,1.783C73.167-2.993,72.919-2.961,72.668-2.919z"/>
	<path fill-rule="evenodd" clip-rule="evenodd" fill="#FFFFFF" d="M13.259,38.8c0.656-0.647,1.32-1.285,1.963-1.947
		c1.149-1.179,2.304-2.354,3.417-3.564c0.384-0.42,0.646-0.943,0.973-1.415c0.084-0.12,0.211-0.298,0.312-0.296
		c0.12,0.004,0.271,0.153,0.343,0.281c0.244,0.425,0.196,0.881-0.106,1.229c-0.612,0.695-1.278,1.343-1.927,2.008
		c-0.115,0.121-0.249,0.221-0.333,0.385c1.174-0.683,2.494-1.224,3.267-2.363c0.742-1.095,1.239-2.357,1.88-3.611
		c0.125,0.145,0.254,0.262,0.335,0.4c0.334,0.592,0.669,1.177,0.971,1.779c0.396,0.792,0.348,1.045-0.417,1.521
		c-1.213,0.754-2.441,1.491-3.692,2.178c-1.986,1.09-3.994,2.136-5.996,3.191c-0.284,0.149-0.594,0.248-0.89,0.374
		C13.325,38.899,13.291,38.849,13.259,38.8z"/>
	<path fill-rule="evenodd" clip-rule="evenodd" fill="#FFFFFF" d="M76.292,25.206c-0.558,0.72-1.064,1.43-1.628,2.088
		c-3.658,4.276-8.319,6.662-13.884,7.335c-0.116,0.016-0.249,0.057-0.35,0.02c-0.234-0.083-0.598-0.163-0.643-0.324
		c-0.104-0.35,0.146-0.56,0.526-0.621c0.687-0.108,1.369-0.247,2.049-0.38c4.976-0.97,8.995-3.47,12.041-7.522
		c0.329-0.441,0.578-0.945,0.872-1.412c0.09-0.145,0.268-0.386,0.316-0.369c0.187,0.073,0.393,0.204,0.486,0.373
		C76.197,24.626,76.216,24.906,76.292,25.206z"/>
	<path fill-rule="evenodd" clip-rule="evenodd" fill="#FFFFFF" d="M83.04,21.74c0.378-0.969,0.743-1.924,1.132-2.87
		c0.065-0.165,0.214-0.347,0.37-0.413c2.059-0.882,4.123-1.742,6.192-2.609c0.03-0.011,0.075,0.008,0.114,0.015
		c0.155,0.908-0.676,2.679-1.648,3.146c-2.02,0.966-4.087,1.829-6.138,2.733C83.036,21.756,82.989,21.729,83.04,21.74z"/>
	<path fill-rule="evenodd" clip-rule="evenodd" fill="#FFFFFF" d="M69.206-1.229C67.01,0.919,65.72,3.658,63.907,6.21
		c-0.026-0.313-0.045-0.489-0.057-0.666C63.8,4.93,63.828,4.302,63.695,3.706c-0.262-1.163,0.227-2.003,0.872-2.918
		c0.721-1.022,1.548-1.617,2.794-1.696C67.979-0.949,68.593-1.117,69.206-1.229z"/>
	<path fill-rule="evenodd" clip-rule="evenodd" fill="#FFFFFF" d="M41.658,35.95c-0.418,0.674-0.9,1.25-1.158,1.914
		c-0.317,0.82-0.846,1.106-1.669,1.213c-1.294,0.165-2.573,0.449-3.975,0.707c0.265-0.391,0.509-0.685,0.682-1.016
		c0.249-0.488,0.438-1.007,0.677-1.497c0.086-0.18,0.22-0.427,0.372-0.46c1.551-0.337,3.108-0.633,4.665-0.933
		C41.355,35.86,41.472,35.915,41.658,35.95z"/>
	<path fill-rule="evenodd" clip-rule="evenodd" fill="#FFFFFF" d="M60.778,22.053c1.117-0.709,2.232-1.422,3.356-2.123
		c0.623-0.39,1.231-0.814,1.896-1.115c0.412-0.188,0.919-0.255,1.376-0.238c0.595,0.028,0.991,0.472,1.04,0.979
		c0.051,0.553-0.29,1.183-0.834,1.301c-2.246,0.494-4.497,0.945-6.744,1.41C60.836,22.195,60.809,22.122,60.778,22.053z"/>
	<path fill-rule="evenodd" clip-rule="evenodd" fill="#FFFFFF" d="M83.345,2.96c-0.094-0.217-0.227-0.396-0.186-0.455
		c0.092-0.14,0.261-0.261,0.42-0.304c0.054-0.016,0.28,0.282,0.249,0.34C83.749,2.687,83.567,2.779,83.345,2.96z"/>
	<g>
		<path fill="#FFFFFF" d="M81.421,14.858c1.69-1.401,3.273-2.382,4.746-2.943c2.474-0.942,3.955-0.774,4.443,0.506
			c0.148,0.385,0.132,0.796-0.045,1.229c-0.176,0.432-0.458,0.725-0.84,0.87c-0.237,0.088-0.772,0.183-1.618,0.285
			c-0.496,0.04-0.956,0.146-1.383,0.308c-1.815,0.689-3.389,1.728-4.716,3.115c-0.941,0.993-1.605,1.563-1.989,1.708
			c-0.492,0.186-0.977,0.188-1.463,0.006c-0.455-0.167-0.752-0.433-0.889-0.796c-0.335-0.873,0.043-3.033,1.124-6.475
			c1.652-5.102,3.703-9.693,6.152-13.782c-2.219,1.165-3.757,1.909-4.61,2.234c-2.051,0.78-3.305,0.56-3.769-0.655
			c-0.144-0.384-0.139-0.753,0.019-1.107c0.146-0.324,0.367-0.542,0.666-0.657c0.257-0.097,0.852-0.239,1.782-0.423
			c0.364-0.065,0.901-0.232,1.607-0.501c1.833-0.699,3.54-1.58,5.113-2.643c0.604-0.399,1.144-0.69,1.611-0.87
			c0.535-0.202,1.056-0.183,1.563,0.063c0.386,0.172,0.653,0.461,0.809,0.867c0.27,0.703-0.039,1.7-0.913,2.986
			c-2.446,4.108-4.104,7.171-4.972,9.188C82.644,10.301,81.833,12.795,81.421,14.858z"/>
	</g>
</g>
</svg>
